<svg xmlns="http://www.w3.org/2000/svg" width="56.128" height="56" viewBox="0 0 56.128 56">
  <g id="Group_10064" data-name="Group 10064" transform="translate(-375.175 -82.027)">
    <path id="Path_5" data-name="Path 5" d="M0,27.292a3.713,3.713,0,0,0,.142-.641,27.252,27.252,0,0,1,3.36-12.013A27.907,27.907,0,0,1,14.588,3.478,27.459,27.459,0,0,1,23.058.446,21.464,21.464,0,0,1,26.2.067c.914-.032,1.829-.086,2.741-.061a27.274,27.274,0,0,1,8.9,1.721,27.853,27.853,0,0,1,11.808,8.365,27.622,27.622,0,0,1,5.707,11.333,28.945,28.945,0,0,1,.619,3.6A27.924,27.924,0,0,1,53.488,39.85a27.925,27.925,0,0,1-11.36,12.382,27.356,27.356,0,0,1-9.2,3.347A27.949,27.949,0,0,1,16.7,53.563,27.955,27.955,0,0,1,4.335,42.779,27.437,27.437,0,0,1,.6,33.28a25.382,25.382,0,0,1-.46-3.942A3.543,3.543,0,0,0,0,28.7V27.289ZM3.279,28A24.847,24.847,0,1,0,28.117,3.15,24.829,24.829,0,0,0,3.279,28Z" transform="translate(375.175 82.027)" fill="#007db8"/>
    <path id="Path_14" data-name="Path 14" d="M63.4,82.071l1.543-1.406q10.306,10.171,20.769,20.491c-.193.01-.306.02-.421.02q-5.791,0-11.58,0a.889.889,0,0,1-.685-.271q-4.511-4.42-9.035-8.83-1.082-1.056-2.166-2.113c-.081-.081-.171-.152-.291-.257a2.022,2.022,0,0,0-.081.252,1.2,1.2,0,0,0,0,.21v8.375c0,.149.024.3.039.491h6.108a2.2,2.2,0,0,1,.421.027,1.033,1.033,0,0,1,.883,1.161,1.02,1.02,0,0,1-1.037.944c-.13,0-.259,0-.386,0H59.691c-.32-.007-.342-.029-.355-.335,0-.083,0-.164,0-.247V84.68c.174-.029.23.093.306.169q1.676,1.632,3.35,3.269,5.465,5.337,10.925,10.673a.8.8,0,0,0,.619.252c1.819-.01,3.638,0,5.455,0h.35c.034-.193-.1-.262-.178-.345q-1.647-1.636-3.3-3.267-3.143-3.1-6.289-6.2-3.444-3.4-6.893-6.793a2.24,2.24,0,0,0-.318-.223c.012-.046.027-.093.039-.137Z" transform="translate(330.348 21.086)" fill="#007db8"/>
    <path id="Path_15" data-name="Path 15" d="M110.965,66.578c-.169-.012-.337-.034-.506-.034H99.583c-.814,0-.685.064-.694-.694,0-.374,0-.751,0-1.125,0-.254.027-.274.289-.286.083,0,.164,0,.247,0h16.911a1.7,1.7,0,0,1-.142.178q-4.764,4.643-9.526,9.284a1.248,1.248,0,0,1-.917.447.985.985,0,0,1-.937-.572,1.054,1.054,0,0,1,.1-1.132,1.918,1.918,0,0,1,.213-.232q2.795-2.729,5.592-5.455c.1-.1.186-.2.276-.3-.01-.027-.017-.051-.027-.078Z" transform="translate(300.469 33.346)" fill="#007db8"/>
  </g>
</svg>
