<svg xmlns="http://www.w3.org/2000/svg" width="29.264" height="30" viewBox="0 0 29.264 30">
  <path id="Union_3" data-name="Union 3" d="M18.75,27.5a2.5,2.5,0,1,1,2.5,2.5A2.5,2.5,0,0,1,18.75,27.5Zm-12.5,0A2.5,2.5,0,1,1,8.75,30,2.5,2.5,0,0,1,6.25,27.5ZM10.7,23.75a6.25,6.25,0,0,1-6.208-5.521L2.769,3.6A1.25,1.25,0,0,0,1.528,2.5H1.25a1.25,1.25,0,0,1,0-2.5h.278A3.751,3.751,0,0,1,5.25,3.311L5.3,3.75h20.21A3.751,3.751,0,0,1,29.2,8.166l-.981,5.442a6.251,6.251,0,0,1-6.151,5.142H7.171a3.752,3.752,0,0,0,3.526,2.5H23.75a1.25,1.25,0,1,1,0,2.5Zm-3.923-7.5h15.3a3.748,3.748,0,0,0,3.7-3.085l.983-5.443A1.25,1.25,0,0,0,25.512,6.25H5.6Z" fill="#fff"/>
</svg>
