<svg xmlns="http://www.w3.org/2000/svg" width="34.144" height="30" viewBox="0 0 34.144 30">
  <path id="heart" d="M24.888,1.917A9.1,9.1,0,0,0,17.067,6.61,9.1,9.1,0,0,0,9.246,1.917,9.67,9.67,0,0,0,0,11.943c0,6.466,6.806,13.528,12.514,18.316a7.073,7.073,0,0,0,9.1,0c5.708-4.788,12.514-11.85,12.514-18.316A9.67,9.67,0,0,0,24.888,1.917Zm-5.1,26.166a4.228,4.228,0,0,1-5.447,0c-7.307-6.131-11.5-12.012-11.5-16.14a6.826,6.826,0,0,1,6.4-7.181,6.826,6.826,0,0,1,6.4,7.181,1.422,1.422,0,1,0,2.844,0,6.826,6.826,0,0,1,6.4-7.181,6.826,6.826,0,0,1,6.4,7.181c0,4.128-4.191,10.01-11.5,16.135Z" transform="translate(0.005 -1.917)" fill="#fff"/>
</svg>
