<svg id="Group_23" data-name="Group 23" xmlns="http://www.w3.org/2000/svg" xmlns:xlink="http://www.w3.org/1999/xlink" width="185.741" height="56" viewBox="0 0 185.741 56">
  <defs>
    <clipPath id="clip-path">
      <rect id="Rectangle_24" data-name="Rectangle 24" width="185.741" height="56" fill="none"/>
    </clipPath>
  </defs>
  <g id="Group_23-2" data-name="Group 23" clip-path="url(#clip-path)">
    <path id="Path_5" data-name="Path 5" d="M0,27.292a3.713,3.713,0,0,0,.142-.641,27.252,27.252,0,0,1,3.36-12.013A27.907,27.907,0,0,1,14.588,3.478,27.459,27.459,0,0,1,23.058.446,21.464,21.464,0,0,1,26.2.067c.914-.032,1.829-.086,2.741-.061a27.274,27.274,0,0,1,8.9,1.721,27.853,27.853,0,0,1,11.808,8.365,27.622,27.622,0,0,1,5.707,11.333,28.945,28.945,0,0,1,.619,3.6A27.924,27.924,0,0,1,53.488,39.85a27.925,27.925,0,0,1-11.36,12.382,27.356,27.356,0,0,1-9.2,3.347A27.949,27.949,0,0,1,16.7,53.563,27.955,27.955,0,0,1,4.335,42.779,27.437,27.437,0,0,1,.6,33.28a25.382,25.382,0,0,1-.46-3.942A3.543,3.543,0,0,0,0,28.7V27.289ZM3.279,28A24.847,24.847,0,1,0,28.117,3.15,24.829,24.829,0,0,0,3.279,28Z" transform="translate(0 0)" fill="#007db8"/>
    <path id="Path_6" data-name="Path 6" d="M534.81,14.952h.416c3.484,0,6.969-.032,10.453.015a18.864,18.864,0,0,1,7.24,1.389,12.061,12.061,0,0,1,7.426,9.042,18.493,18.493,0,0,1,.33,4.827,15.2,15.2,0,0,1-1.112,5.2,11.975,11.975,0,0,1-6.939,6.788,18.6,18.6,0,0,1-4.392,1.073,29.717,29.717,0,0,1-3.929.213q-4.486-.007-8.974,0a.46.46,0,0,1-.518-.518V14.952Zm6.314,22.97c.176.015.313.034.45.034,1.325,0,2.653.017,3.979,0a11.664,11.664,0,0,0,3.528-.55,7.067,7.067,0,0,0,4.9-5.088,11.748,11.748,0,0,0,.129-5.6,7.18,7.18,0,0,0-5.233-5.744,14.158,14.158,0,0,0-3.851-.545c-1.174-.027-2.347-.007-3.518,0a3.2,3.2,0,0,0-.382.049Z" transform="translate(-404.039 -11.288)" fill="#007db8"/>
    <path id="Path_7" data-name="Path 7" d="M394.36,41.791a15.73,15.73,0,0,1-6.2-1.215,14.751,14.751,0,0,1-5.245-3.824,13.646,13.646,0,0,1-3.333-6.905,16.844,16.844,0,0,1-.174-4.237,13.446,13.446,0,0,1,1.467-5.316,14.533,14.533,0,0,1,9.918-7.649,16.436,16.436,0,0,1,4.79-.328,14.387,14.387,0,0,1,8.495,3.338,14.022,14.022,0,0,1,4.9,7.883,17.571,17.571,0,0,1,.333,2.4,15.122,15.122,0,0,1-.029,2.6,13.73,13.73,0,0,1-2.839,7.411,14.641,14.641,0,0,1-7.238,5.12,13.653,13.653,0,0,1-3.13.619c-.572.044-1.147.071-1.719.105Zm8.578-14.554a9.63,9.63,0,0,0-.856-4.282c-1.406-2.878-3.555-4.795-6.864-5.157a7.938,7.938,0,0,0-3.768.472,8.607,8.607,0,0,0-4.494,4.071,9.786,9.786,0,0,0-1.044,6.2,9.088,9.088,0,0,0,3.413,6.03,7.857,7.857,0,0,0,5.964,1.682,7.481,7.481,0,0,0,3.858-1.479,9.271,9.271,0,0,0,3.792-7.538Z" transform="translate(-286.588 -9.271)" fill="#007db8"/>
    <path id="Path_8" data-name="Path 8" d="M272.193,32.221c-.127.127-.22.213-.3.308-.792.88-1.58,1.768-2.379,2.641a.845.845,0,0,0-.242.628c.007,2.416,0,4.834,0,7.25v.4c-.3.09-5.8.112-6.25.034-.015-.078-.034-.166-.044-.254s0-.164,0-.247V15.058c.308-.1,5.922-.108,6.3-.012v8.7c0,.966-.01,1.932.007,2.9l.081.034c.088-.083.183-.164.266-.254q2.516-2.732,5.027-5.465,2.622-2.85,5.24-5.7a.778.778,0,0,1,.636-.286c2.335.01,4.67,0,7.005,0h.369c-.1.125-.152.21-.218.284q-2.681,2.986-5.367,5.966-2.729,3.037-5.46,6.071c-.264.293-.262.3-.034.619q5.392,7.567,10.786,15.131l.308.438a2.947,2.947,0,0,1-.315.034q-3.345,0-6.69,0a.585.585,0,0,1-.521-.279q-3.939-5.315-7.888-10.624C272.418,32.5,272.323,32.387,272.193,32.221Z" transform="translate(-198.674 -11.313)" fill="#007db8"/>
    <path id="Path_9" data-name="Path 9" d="M673.663,15.035h20.505c.091.276.1,5.174.012,5.548-.149.007-.311.02-.47.02H680.583c-.611,0-.626-.071-.624.6q0,2.41,0,4.819c0,.093,0,.188,0,.281.015.264.051.3.313.313.105,0,.21,0,.318,0h12.2c.012.169.029.293.029.418v4.47c0,.443,0,.445-.455.445H680.712q-.246,0-.491.007a.233.233,0,0,0-.262.259c0,.105,0,.21,0,.315v4.89a.517.517,0,0,0,.577.589h13.586c.579,0,.56-.044.56.55V43c0,.093,0,.188,0,.281-.015.23-.042.257-.274.269-.093,0-.188,0-.281,0H674.2c-.606,0-.538.01-.538-.528V15.035Z" transform="translate(-508.938 -11.351)" fill="#007db8"/>
    <path id="Path_10" data-name="Path 10" d="M382.793,172.594v4.717c-.7.037-1.347.032-1.985,0-.091-.3-.1-11.678-.01-12.03.1,0,.218-.017.33-.017,1.291,0,2.582-.015,3.873,0a6.143,6.143,0,0,1,2.237.4,2.969,2.969,0,0,1,1.971,2.814,4.8,4.8,0,0,1-.093,1.4,3.2,3.2,0,0,1-1.88,2.23l-.452.205c.954,1.67,1.888,3.3,2.844,4.976a2.479,2.479,0,0,1-.311.039c-.54,0-1.081-.01-1.619.007a.51.51,0,0,1-.526-.308q-1.067-1.962-2.162-3.91c-.352-.628-.188-.516-.883-.523-.421,0-.841,0-1.335,0Zm.039-5.641a33.966,33.966,0,0,0,.029,3.983.672.672,0,0,0,.13.027c.68,0,1.359,0,2.039-.01a2.546,2.546,0,0,0,.587-.1,1.872,1.872,0,0,0,1.57-1.824,1.683,1.683,0,0,0-.936-1.839,2.811,2.811,0,0,0-.668-.205,16.022,16.022,0,0,0-2.631-.073.417.417,0,0,0-.115.042Z" transform="translate(-287.638 -124.854)" fill="#007db8"/>
    <path id="Path_11" data-name="Path 11" d="M326.114,170.568a7.524,7.524,0,0,1-.648,3.35,4.693,4.693,0,0,1-3.411,2.829,5.007,5.007,0,0,1-5.128-1.6,5.567,5.567,0,0,1-1.218-2.58,8.657,8.657,0,0,1,.245-4.778,4.793,4.793,0,0,1,3.445-3.22,5.506,5.506,0,0,1,3.252.125,4.819,4.819,0,0,1,2.966,2.951,7.443,7.443,0,0,1,.5,2.927Zm-2.083-.049c-.017-.237-.029-.54-.066-.844a4.7,4.7,0,0,0-.936-2.462,2.863,2.863,0,0,0-4.379-.059,3.713,3.713,0,0,0-.712,1.281,7.1,7.1,0,0,0-.166,3.709,4.4,4.4,0,0,0,.831,1.878,2.778,2.778,0,0,0,3.025.966,2.845,2.845,0,0,0,1.761-1.516,6.536,6.536,0,0,0,.643-2.956Z" transform="translate(-238.346 -124.187)" fill="#007db8"/>
    <path id="Path_12" data-name="Path 12" d="M439.773,172.877c-.015.2-.034.352-.034.5,0,1.161,0,2.32,0,3.482,0,.137-.015.274-.022.423a1.924,1.924,0,0,1-.264.042c-.469,0-.939,0-1.406,0-.3,0-.323-.029-.335-.318,0-.071,0-.142,0-.21V165.788c0-.621.032-.528.543-.528q1.794,0,3.587,0a7.5,7.5,0,0,1,1.809.21,3.365,3.365,0,0,1,2.044,1.269,3.063,3.063,0,0,1,.575,1.741,7.37,7.37,0,0,1-.034,1.3,3.365,3.365,0,0,1-2.337,2.744,6.109,6.109,0,0,1-2,.347c-.562.015-1.125,0-1.69,0h-.433Zm.039-5.934a26.323,26.323,0,0,0,.017,4.3c.262,0,.54.007.817,0a18.043,18.043,0,0,0,1.822-.086,1.9,1.9,0,0,0,1.78-1.67,3.341,3.341,0,0,0,.029-.665,1.7,1.7,0,0,0-1.43-1.785,11.473,11.473,0,0,0-3.008-.112c-.01,0-.02.01-.029.017Z" transform="translate(-330.681 -124.847)" fill="#007db8"/>
    <path id="Path_13" data-name="Path 13" d="M272.008,165.864c-.411.465-.773.873-1.152,1.3-.144-.113-.259-.208-.379-.3a3.109,3.109,0,0,0-4.414.562,4.622,4.622,0,0,0-.888,2.228,6.715,6.715,0,0,0,.271,3.157,3.666,3.666,0,0,0,.795,1.355,3.009,3.009,0,0,0,2.367.961,3.257,3.257,0,0,0,2.22-.919c.068-.064.139-.125.21-.186a.712.712,0,0,1,.076-.037c.36.384.729.782,1.091,1.21a4.666,4.666,0,0,1-1.22,1.042,4.6,4.6,0,0,1-2.267.663,5.534,5.534,0,0,1-2.915-.645,5.028,5.028,0,0,1-2.4-2.961,7.9,7.9,0,0,1,.1-5.409,5.129,5.129,0,0,1,4.042-3.379,4.7,4.7,0,0,1,4.152,1.13c.088.076.188.139.311.23Z" transform="translate(-198.674 -124.206)" fill="#007db8"/>
    <path id="Path_14" data-name="Path 14" d="M63.4,82.071l1.543-1.406q10.306,10.171,20.769,20.491c-.193.01-.306.02-.421.02q-5.791,0-11.58,0a.889.889,0,0,1-.685-.271q-4.511-4.42-9.035-8.83-1.082-1.056-2.166-2.113c-.081-.081-.171-.152-.291-.257a2.022,2.022,0,0,0-.081.252,1.2,1.2,0,0,0,0,.21v8.375c0,.149.024.3.039.491h6.108a2.2,2.2,0,0,1,.421.027,1.033,1.033,0,0,1,.883,1.161,1.02,1.02,0,0,1-1.037.944c-.13,0-.259,0-.386,0H59.691c-.32-.007-.342-.029-.355-.335,0-.083,0-.164,0-.247V84.68c.174-.029.23.093.306.169q1.676,1.632,3.35,3.269,5.465,5.337,10.925,10.673a.8.8,0,0,0,.619.252c1.819-.01,3.638,0,5.455,0h.35c.034-.193-.1-.262-.178-.345q-1.647-1.636-3.3-3.267-3.143-3.1-6.289-6.2-3.444-3.4-6.893-6.793a2.24,2.24,0,0,0-.318-.223c.012-.046.027-.093.039-.137Z" transform="translate(-44.827 -60.941)" fill="#007db8"/>
    <path id="Path_15" data-name="Path 15" d="M110.965,66.578c-.169-.012-.337-.034-.506-.034H99.583c-.814,0-.685.064-.694-.694,0-.374,0-.751,0-1.125,0-.254.027-.274.289-.286.083,0,.164,0,.247,0h16.911a1.7,1.7,0,0,1-.142.178q-4.764,4.643-9.526,9.284a1.248,1.248,0,0,1-.917.447.985.985,0,0,1-.937-.572,1.054,1.054,0,0,1,.1-1.132,1.918,1.918,0,0,1,.213-.232q2.795-2.729,5.592-5.455c.1-.1.186-.2.276-.3-.01-.027-.017-.051-.027-.078Z" transform="translate(-74.706 -48.68)" fill="#007db8"/>
    <path id="Path_16" data-name="Path 16" d="M490.259,183.261H492.1v7.67h-1.837Zm.54,0h4.777v1.549H490.8Zm.006,6.1h4.826v1.566h-4.826Zm.528-3.079h4.153v1.506h-4.153Z" transform="translate(-370.382 -138.45)"/>
    <rect id="Rectangle_23" data-name="Rectangle 23" width="3.445" height="1.464" transform="translate(126.275 48.676)"/>
    <path id="Path_17" data-name="Path 17" d="M537.854,190.58a3.166,3.166,0,0,1-2.44-.867,3.517,3.517,0,0,1-.8-2.476v-1.362a3.442,3.442,0,0,1,.8-2.44,3.164,3.164,0,0,1,2.425-.861,4.532,4.532,0,0,1,.8.066,3.958,3.958,0,0,1,.666.177,3.122,3.122,0,0,1,.528.249l.138,1.608a5.25,5.25,0,0,0-.777-.327,3.108,3.108,0,0,0-.981-.141,1.621,1.621,0,0,0-1.27.459,1.863,1.863,0,0,0-.411,1.287v1.212a1.848,1.848,0,0,0,.417,1.284,1.718,1.718,0,0,0,1.336.462,3.015,3.015,0,0,0,.966-.144,4.325,4.325,0,0,0,.78-.348l-.138,1.645a3.313,3.313,0,0,1-.534.255,4.041,4.041,0,0,1-.681.189,4.389,4.389,0,0,1-.825.072" transform="translate(-403.89 -137.931)"/>
    <path id="Path_18" data-name="Path 18" d="M562.291,196.033a2.972,2.972,0,0,1-2.158-.711,2.667,2.667,0,0,1-.729-2v-.774a2.728,2.728,0,0,1,.732-2.031,3.568,3.568,0,0,1,4.307,0,2.735,2.735,0,0,1,.729,2.031v.774a2.674,2.674,0,0,1-.726,2,2.962,2.962,0,0,1-2.155.711m0-1.447a.972.972,0,0,0,.777-.309,1.306,1.306,0,0,0,.267-.879v-.93a1.371,1.371,0,0,0-.267-.913,1.124,1.124,0,0,0-1.555,0,1.369,1.369,0,0,0-.267.913v.93a1.3,1.3,0,0,0,.267.879.971.971,0,0,0,.777.309" transform="translate(-422.62 -143.384)"/>
    <path id="Path_19" data-name="Path 19" d="M587.116,195.975v-5.9h1.825l-.06,1.591.072.06v4.249Zm3.613,0v-3.517a1.712,1.712,0,0,0-.075-.537.647.647,0,0,0-.255-.345.865.865,0,0,0-.486-.12,1.035,1.035,0,0,0-.468.1.917.917,0,0,0-.327.27,1.242,1.242,0,0,0-.2.387l-.282-.858h.312a2.177,2.177,0,0,1,.3-.72,1.473,1.473,0,0,1,.573-.507,2,2,0,0,1,.924-.189,1.668,1.668,0,0,1,1.24.423,2.1,2.1,0,0,1,.525,1.227c.012.08.024.178.036.294a3.071,3.071,0,0,1,.018.312v3.781Zm3.613,0v-3.517a1.712,1.712,0,0,0-.075-.537.651.651,0,0,0-.252-.345.863.863,0,0,0-.489-.12,1.022,1.022,0,0,0-.462.1.944.944,0,0,0-.33.27,1.212,1.212,0,0,0-.2.387l-.174-.858h.162a2.27,2.27,0,0,1,.306-.717,1.48,1.48,0,0,1,.582-.51,2.1,2.1,0,0,1,.955-.189,1.918,1.918,0,0,1,1.029.249,1.475,1.475,0,0,1,.591.744,3.438,3.438,0,0,1,.192,1.233v3.811Z" transform="translate(-443.556 -143.494)"/>
    <path id="Path_20" data-name="Path 20" d="M628.99,195.975v-5.9h1.824l-.06,1.591.072.06v4.249Zm3.613,0v-3.517a1.712,1.712,0,0,0-.075-.537.647.647,0,0,0-.255-.345.865.865,0,0,0-.486-.12,1.035,1.035,0,0,0-.468.1.916.916,0,0,0-.327.27,1.243,1.243,0,0,0-.2.387l-.282-.858h.312a2.174,2.174,0,0,1,.3-.72,1.475,1.475,0,0,1,.573-.507,2,2,0,0,1,.924-.189,1.668,1.668,0,0,1,1.239.423,2.1,2.1,0,0,1,.525,1.227c.012.08.024.178.036.294a3.1,3.1,0,0,1,.018.312v3.781Zm3.613,0v-3.517a1.716,1.716,0,0,0-.075-.537.652.652,0,0,0-.252-.345.863.863,0,0,0-.489-.12,1.022,1.022,0,0,0-.462.1.943.943,0,0,0-.33.27,1.211,1.211,0,0,0-.2.387l-.174-.858h.162a2.274,2.274,0,0,1,.306-.717,1.481,1.481,0,0,1,.582-.51,2.1,2.1,0,0,1,.955-.189,1.918,1.918,0,0,1,1.029.249,1.475,1.475,0,0,1,.591.744,3.437,3.437,0,0,1,.192,1.233v3.811Z" transform="translate(-475.191 -143.494)"/>
    <path id="Path_21" data-name="Path 21" d="M673.127,196.014a3.388,3.388,0,0,1-2.377-.717,2.724,2.724,0,0,1-.768-2.092v-.612a2.525,2.525,0,0,1,2.815-2.8,3.359,3.359,0,0,1,1.539.315,2.1,2.1,0,0,1,.924.9,2.945,2.945,0,0,1,.309,1.4v.2c0,.152-.007.307-.021.465s-.033.305-.057.441h-1.657q.024-.348.03-.657t.006-.561a1.478,1.478,0,0,0-.114-.615.813.813,0,0,0-.351-.381,1.247,1.247,0,0,0-.609-.132,1.009,1.009,0,0,0-.807.3,1.258,1.258,0,0,0-.255.843v.54l.012.2v.42a1.242,1.242,0,0,0,.075.432.822.822,0,0,0,.264.357,1.378,1.378,0,0,0,.522.24,3.447,3.447,0,0,0,.849.087,5.128,5.128,0,0,0,1.05-.105,6.047,6.047,0,0,0,.966-.285l-.15,1.38a3.9,3.9,0,0,1-.967.33,5.867,5.867,0,0,1-1.23.12m-2.173-3.643h4.165v1.134h-4.165Z" transform="translate(-506.159 -143.383)"/>
    <path id="Path_22" data-name="Path 22" d="M696.884,196.1v-5.9h1.729l-.078,1.885.186.024V196.1Zm1.8-3.313-.5-1.116h.432a2.172,2.172,0,0,1,.561-1.15,1.6,1.6,0,0,1,1.179-.417,1.491,1.491,0,0,1,.243.018c.074.012.145.026.213.042l.09,1.854a1.623,1.623,0,0,0-.294-.051q-.168-.015-.342-.015a2.052,2.052,0,0,0-.991.219,1.337,1.337,0,0,0-.588.615" transform="translate(-526.483 -143.623)"/>
    <path id="Path_23" data-name="Path 23" d="M717.957,196.057a2.7,2.7,0,0,1-2.083-.738,2.956,2.956,0,0,1-.678-2.077v-.612a2.92,2.92,0,0,1,.678-2.053,2.687,2.687,0,0,1,2.077-.738,4.177,4.177,0,0,1,.672.051,3.583,3.583,0,0,1,.576.141,3.482,3.482,0,0,1,.462.192l.15,1.519a3.3,3.3,0,0,0-.648-.279,2.664,2.664,0,0,0-.8-.111,1.321,1.321,0,0,0-1.008.336,1.379,1.379,0,0,0-.312.972v.51a1.393,1.393,0,0,0,.33,1,1.363,1.363,0,0,0,1.032.348,2.751,2.751,0,0,0,.789-.1,3.693,3.693,0,0,0,.67-.273l-.144,1.525a3.331,3.331,0,0,1-.769.282,4.1,4.1,0,0,1-1,.114" transform="translate(-540.318 -143.42)"/>
    <path id="Path_24" data-name="Path 24" d="M739.916,196.014a3.388,3.388,0,0,1-2.377-.717,2.723,2.723,0,0,1-.768-2.092v-.612a2.525,2.525,0,0,1,2.815-2.8,3.36,3.36,0,0,1,1.539.315,2.1,2.1,0,0,1,.924.9,2.945,2.945,0,0,1,.309,1.4v.2c0,.152-.007.307-.021.465s-.033.305-.057.441h-1.657q.024-.348.03-.657t.006-.561a1.476,1.476,0,0,0-.114-.615.812.812,0,0,0-.351-.381,1.247,1.247,0,0,0-.609-.132,1.009,1.009,0,0,0-.807.3,1.257,1.257,0,0,0-.255.843v.54l.012.2v.42a1.242,1.242,0,0,0,.075.432.823.823,0,0,0,.264.357,1.378,1.378,0,0,0,.522.24,3.446,3.446,0,0,0,.849.087,5.129,5.129,0,0,0,1.05-.105,6.051,6.051,0,0,0,.966-.285l-.15,1.38a3.889,3.889,0,0,1-.966.33,5.864,5.864,0,0,1-1.23.12m-2.173-3.643h4.165v1.134h-4.165Z" transform="translate(-556.617 -143.383)"/>
  </g>
</svg>
